<?xml version="1.0" standalone="no"?>
<!DOCTYPE svg PUBLIC "-//W3C//DTD SVG 20010904//EN"
 "http://www.w3.org/TR/2001/REC-SVG-20010904/DTD/svg10.dtd">
<svg version="1.0" xmlns="http://www.w3.org/2000/svg"
 width="200.000000pt" height="199.000000pt" viewBox="0 0 200.000000 199.200000"
 preserveAspectRatio="xMidYMid meet">
<metadata>
Created by potrace 1.10, written by Peter Selinger 2001-2011
</metadata>
<g transform="translate(0.000000,199.000000) scale(0.100000,-0.100000)"
fill="#000000" stroke="none">
<path d="M848 1976 c-210 -38 -381 -123 -531 -266 -210 -199 -320 -478 -304
-769 26 -444 327 -804 764 -913 131 -33 341 -31 474 5 356 94 622 361 717 717
33 126 37 333 8 455 -91 390 -381 677 -771 761 -100 22 -265 26 -357 10z
m-379 -623 c7 -16 67 -151 133 -302 l120 -274 -42 -96 c-23 -53 -46 -100 -50
-104 -5 -6 -312 672 -355 786 -7 15 1 17 87 17 94 0 95 0 107 -27z m423 -248
c65 -148 123 -284 130 -302 10 -28 7 -41 -33 -132 -24 -55 -46 -101 -49 -101
-6 0 -339 757 -347 790 -5 20 -3 21 87 18 l93 -3 119 -270z m783 185 l0 -85
-262 -3 -263 -2 0 90 0 90 263 -2 262 -3 0 -85z m-215 -310 l0 -80 -155 0
-155 0 0 80 0 80 155 0 155 0 0 -80z m220 -305 l0 -85 -265 0 -265 0 0 85 0
85 265 0 265 0 0 -85z"/>
</g>
</svg>